<svg width="95" height="79" viewBox="0 0 95 79" fill="none" xmlns="http://www.w3.org/2000/svg">
<path d="M14.736 75C14.472 75 14.25 74.91 14.07 74.73C13.89 74.55 13.8 74.328 13.8 74.064V61.878C13.8 61.602 13.89 61.38 14.07 61.212C14.25 61.032 14.472 60.942 14.736 60.942C15.012 60.942 15.234 61.032 15.402 61.212C15.582 61.38 15.672 61.602 15.672 61.878V67.044H24.024V61.878C24.024 61.602 24.114 61.38 24.294 61.212C24.474 61.032 24.696 60.942 24.96 60.942C25.236 60.942 25.458 61.032 25.626 61.212C25.794 61.38 25.878 61.602 25.878 61.878V74.064C25.878 74.328 25.794 74.55 25.626 74.73C25.458 74.91 25.236 75 24.96 75C24.696 75 24.474 74.91 24.294 74.73C24.114 74.55 24.024 74.328 24.024 74.064V68.7H15.672V74.064C15.672 74.328 15.582 74.55 15.402 74.73C15.234 74.91 15.012 75 14.736 75ZM33.4037 75.072C32.5277 75.072 31.7417 74.856 31.0457 74.424C30.3497 73.98 29.7977 73.386 29.3897 72.642C28.9937 71.886 28.7957 71.034 28.7957 70.086C28.7957 69.138 29.0117 68.286 29.4437 67.53C29.8877 66.774 30.4817 66.18 31.2257 65.748C31.9817 65.304 32.8277 65.082 33.7637 65.082C34.6997 65.082 35.5397 65.304 36.2837 65.748C37.0277 66.18 37.6157 66.774 38.0477 67.53C38.4917 68.286 38.7137 69.138 38.7137 70.086H38.0117C38.0117 71.034 37.8077 71.886 37.3997 72.642C37.0037 73.386 36.4577 73.98 35.7617 74.424C35.0657 74.856 34.2797 75.072 33.4037 75.072ZM33.7637 73.452C34.3757 73.452 34.9217 73.308 35.4017 73.02C35.8817 72.72 36.2597 72.318 36.5357 71.814C36.8117 71.298 36.9497 70.722 36.9497 70.086C36.9497 69.438 36.8117 68.862 36.5357 68.358C36.2597 67.842 35.8817 67.44 35.4017 67.152C34.9217 66.852 34.3757 66.702 33.7637 66.702C33.1637 66.702 32.6177 66.852 32.1257 67.152C31.6457 67.44 31.2617 67.842 30.9737 68.358C30.6977 68.862 30.5597 69.438 30.5597 70.086C30.5597 70.722 30.6977 71.298 30.9737 71.814C31.2617 72.318 31.6457 72.72 32.1257 73.02C32.6177 73.308 33.1637 73.452 33.7637 73.452ZM37.7957 75.018C37.5317 75.018 37.3097 74.934 37.1297 74.766C36.9617 74.586 36.8777 74.364 36.8777 74.1V71.346L37.2197 69.438L38.7137 70.086V74.1C38.7137 74.364 38.6237 74.586 38.4437 74.766C38.2757 74.934 38.0597 75.018 37.7957 75.018ZM46.3962 75.072C45.4602 75.072 44.6202 74.856 43.8762 74.424C43.1322 73.98 42.5442 73.38 42.1122 72.624C41.6802 71.868 41.4582 71.016 41.4462 70.068V61.86C41.4462 61.584 41.5302 61.362 41.6982 61.194C41.8782 61.026 42.1002 60.942 42.3642 60.942C42.6402 60.942 42.8622 61.026 43.0302 61.194C43.1982 61.362 43.2822 61.584 43.2822 61.86V66.72C43.7022 66.216 44.2062 65.82 44.7942 65.532C45.3942 65.232 46.0482 65.082 46.7562 65.082C47.6322 65.082 48.4182 65.304 49.1142 65.748C49.8102 66.18 50.3562 66.774 50.7522 67.53C51.1602 68.274 51.3642 69.12 51.3642 70.068C51.3642 71.016 51.1422 71.868 50.6982 72.624C50.2662 73.38 49.6782 73.98 48.9342 74.424C48.1902 74.856 47.3442 75.072 46.3962 75.072ZM46.3962 73.452C47.0082 73.452 47.5542 73.308 48.0342 73.02C48.5142 72.72 48.8922 72.312 49.1682 71.796C49.4562 71.28 49.6002 70.704 49.6002 70.068C49.6002 69.42 49.4562 68.844 49.1682 68.34C48.8922 67.836 48.5142 67.44 48.0342 67.152C47.5542 66.852 47.0082 66.702 46.3962 66.702C45.7962 66.702 45.2502 66.852 44.7582 67.152C44.2782 67.44 43.9002 67.836 43.6242 68.34C43.3482 68.844 43.2102 69.42 43.2102 70.068C43.2102 70.704 43.3482 71.28 43.6242 71.796C43.9002 72.312 44.2782 72.72 44.7582 73.02C45.2502 73.308 45.7962 73.452 46.3962 73.452ZM59.0524 75.072C58.1164 75.072 57.2764 74.856 56.5324 74.424C55.7884 73.98 55.2004 73.38 54.7684 72.624C54.3364 71.868 54.1144 71.016 54.1024 70.068V61.86C54.1024 61.584 54.1864 61.362 54.3544 61.194C54.5344 61.026 54.7564 60.942 55.0204 60.942C55.2964 60.942 55.5184 61.026 55.6864 61.194C55.8544 61.362 55.9384 61.584 55.9384 61.86V66.72C56.3584 66.216 56.8624 65.82 57.4504 65.532C58.0504 65.232 58.7044 65.082 59.4124 65.082C60.2884 65.082 61.0744 65.304 61.7704 65.748C62.4664 66.18 63.0124 66.774 63.4084 67.53C63.8164 68.274 64.0204 69.12 64.0204 70.068C64.0204 71.016 63.7984 71.868 63.3544 72.624C62.9224 73.38 62.3344 73.98 61.5904 74.424C60.8464 74.856 60.0004 75.072 59.0524 75.072ZM59.0524 73.452C59.6644 73.452 60.2104 73.308 60.6904 73.02C61.1704 72.72 61.5484 72.312 61.8244 71.796C62.1124 71.28 62.2564 70.704 62.2564 70.068C62.2564 69.42 62.1124 68.844 61.8244 68.34C61.5484 67.836 61.1704 67.44 60.6904 67.152C60.2104 66.852 59.6644 66.702 59.0524 66.702C58.4524 66.702 57.9064 66.852 57.4144 67.152C56.9344 67.44 56.5564 67.836 56.2804 68.34C56.0044 68.844 55.8664 69.42 55.8664 70.068C55.8664 70.704 56.0044 71.28 56.2804 71.796C56.5564 72.312 56.9344 72.72 57.4144 73.02C57.9064 73.308 58.4524 73.452 59.0524 73.452ZM67.8567 75C67.5927 75 67.3707 74.916 67.1907 74.748C67.0227 74.568 66.9387 74.346 66.9387 74.082V66.072C66.9387 65.796 67.0227 65.574 67.1907 65.406C67.3707 65.238 67.5927 65.154 67.8567 65.154C68.1327 65.154 68.3547 65.238 68.5227 65.406C68.6907 65.574 68.7747 65.796 68.7747 66.072V74.082C68.7747 74.346 68.6907 74.568 68.5227 74.748C68.3547 74.916 68.1327 75 67.8567 75ZM67.8567 63.552C67.5327 63.552 67.2507 63.438 67.0107 63.21C66.7827 62.97 66.6687 62.688 66.6687 62.364C66.6687 62.04 66.7827 61.764 67.0107 61.536C67.2507 61.296 67.5327 61.176 67.8567 61.176C68.1807 61.176 68.4567 61.296 68.6847 61.536C68.9247 61.764 69.0447 62.04 69.0447 62.364C69.0447 62.688 68.9247 62.97 68.6847 63.21C68.4567 63.438 68.1807 63.552 67.8567 63.552ZM75.7723 75C75.1723 75 74.6323 74.85 74.1523 74.55C73.6723 74.238 73.2943 73.818 73.0183 73.29C72.7423 72.762 72.6043 72.168 72.6043 71.508V62.922C72.6043 62.658 72.6883 62.442 72.8563 62.274C73.0243 62.106 73.2403 62.022 73.5043 62.022C73.7683 62.022 73.9843 62.106 74.1523 62.274C74.3203 62.442 74.4043 62.658 74.4043 62.922V71.508C74.4043 71.988 74.5363 72.39 74.8003 72.714C75.0643 73.038 75.3883 73.2 75.7723 73.2H76.3843C76.6003 73.2 76.7803 73.284 76.9243 73.452C77.0803 73.62 77.1583 73.836 77.1583 74.1C77.1583 74.364 77.0563 74.58 76.8523 74.748C76.6603 74.916 76.4083 75 76.0963 75H75.7723ZM71.7763 67.062C71.5243 67.062 71.3203 66.99 71.1643 66.846C71.0083 66.702 70.9303 66.522 70.9303 66.306C70.9303 66.066 71.0083 65.874 71.1643 65.73C71.3203 65.586 71.5243 65.514 71.7763 65.514H75.9343C76.1863 65.514 76.3903 65.586 76.5463 65.73C76.7023 65.874 76.7803 66.066 76.7803 66.306C76.7803 66.522 76.7023 66.702 76.5463 66.846C76.3903 66.99 76.1863 67.062 75.9343 67.062H71.7763Z" fill="black"/>
<circle cx="55" cy="30" r="25" transform="rotate(-180 55 30)" fill="#F8C2C1"/>
<path d="M51.9402 14.9206C48.6936 10.6274 44.1481 7.49676 38.9796 5.99405C33.8111 4.49134 28.2956 4.69686 23.2532 6.58005C18.2109 8.46325 13.911 11.9235 10.9929 16.4464C8.07475 20.9693 6.69429 26.3132 7.05675 31.6835C7.4192 37.0538 9.50521 42.1637 13.0046 46.2534C16.504 50.3432 21.2299 53.1943 26.4795 54.3829C31.7292 55.5714 37.2223 55.034 42.142 52.8504C47.0617 50.6668 51.1453 46.9537 53.7856 42.2633L32 30L51.9402 14.9206Z" fill="#9A97DA"/>
<path d="M19.39 34C19.2833 34 19.19 33.9633 19.11 33.89C19.0367 33.81 19 33.7167 19 33.61V26.58C19 26.4667 19.0367 26.3733 19.11 26.3C19.19 26.2267 19.2833 26.19 19.39 26.19C19.55 26.19 19.6667 26.2567 19.74 26.39L23.11 33.09H22.77L26.08 26.39C26.16 26.2567 26.2767 26.19 26.43 26.19C26.5367 26.19 26.6267 26.2267 26.7 26.3C26.7733 26.3733 26.81 26.4667 26.81 26.58V33.61C26.81 33.7167 26.7733 33.81 26.7 33.89C26.6267 33.9633 26.5367 34 26.43 34C26.3167 34 26.22 33.9633 26.14 33.89C26.0667 33.81 26.03 33.7167 26.03 33.61V27.59L26.2 27.6L23.25 33.63C23.1767 33.7567 23.0633 33.82 22.91 33.82C22.7433 33.82 22.6233 33.74 22.55 33.58L19.58 27.64L19.78 27.59V33.61C19.78 33.7167 19.74 33.81 19.66 33.89C19.5867 33.9633 19.4967 34 19.39 34ZM29.6545 36.38C29.6011 36.38 29.5411 36.3667 29.4745 36.34C29.2478 36.24 29.1845 36.08 29.2845 35.86L32.5145 28.74C32.6145 28.5267 32.7745 28.4667 32.9945 28.56C33.2211 28.6533 33.2845 28.81 33.1845 29.03L29.9445 36.15C29.8778 36.3033 29.7811 36.38 29.6545 36.38ZM30.7645 33.83C30.6645 33.8767 30.5711 33.8867 30.4845 33.86C30.3978 33.8267 30.3278 33.76 30.2745 33.66L28.0445 29.04C27.9978 28.94 27.9911 28.8467 28.0245 28.76C28.0578 28.6733 28.1245 28.6067 28.2245 28.56C28.3245 28.5133 28.4178 28.5067 28.5045 28.54C28.5911 28.5667 28.6578 28.63 28.7045 28.73L30.8945 33.35C30.9478 33.45 30.9645 33.5433 30.9445 33.63C30.9245 33.7167 30.8645 33.7833 30.7645 33.83ZM39.4927 34C39.386 34 39.2927 33.9633 39.2127 33.89C39.1393 33.81 39.1027 33.7167 39.1027 33.61V26.19H39.8827V33.61C39.8827 33.7167 39.846 33.81 39.7727 33.89C39.6993 33.9633 39.606 34 39.4927 34ZM36.7327 26.9C36.626 26.9 36.5393 26.8667 36.4727 26.8C36.406 26.7333 36.3727 26.65 36.3727 26.55C36.3727 26.4433 36.406 26.3567 36.4727 26.29C36.5393 26.2233 36.626 26.19 36.7327 26.19H42.2627C42.3693 26.19 42.456 26.2233 42.5227 26.29C42.5893 26.3567 42.6227 26.4433 42.6227 26.55C42.6227 26.65 42.5893 26.7333 42.5227 26.8C42.456 26.8667 42.3693 26.9 42.2627 26.9H36.7327ZM42.5989 30.63C42.6189 30.2167 42.7256 29.8467 42.9189 29.52C43.1189 29.1933 43.3756 28.9367 43.6889 28.75C44.0089 28.5633 44.3622 28.47 44.7489 28.47C45.0556 28.47 45.2922 28.5133 45.4589 28.6C45.6256 28.6867 45.6889 28.8133 45.6489 28.98C45.6222 29.08 45.5756 29.1467 45.5089 29.18C45.4489 29.2133 45.3722 29.2267 45.2789 29.22C45.1922 29.2133 45.0922 29.2067 44.9789 29.2C44.6056 29.1667 44.2722 29.2067 43.9789 29.32C43.6922 29.4267 43.4622 29.5933 43.2889 29.82C43.1222 30.0467 43.0389 30.3167 43.0389 30.63H42.5989ZM42.6589 34C42.5389 34 42.4456 33.9667 42.3789 33.9C42.3122 33.8333 42.2789 33.74 42.2789 33.62V28.91C42.2789 28.79 42.3122 28.6967 42.3789 28.63C42.4456 28.5633 42.5389 28.53 42.6589 28.53C42.7789 28.53 42.8722 28.5633 42.9389 28.63C43.0056 28.6967 43.0389 28.79 43.0389 28.91V33.62C43.0389 33.74 43.0056 33.8333 42.9389 33.9C42.8722 33.9667 42.7789 34 42.6589 34ZM48.8686 34.05C48.3553 34.05 47.8953 33.93 47.4886 33.69C47.0819 33.4433 46.7586 33.11 46.5186 32.69C46.2853 32.27 46.1686 31.7967 46.1686 31.27C46.1686 30.7367 46.2886 30.26 46.5286 29.84C46.7753 29.42 47.1086 29.09 47.5286 28.85C47.9486 28.6033 48.4219 28.48 48.9486 28.48C49.4753 28.48 49.9453 28.6033 50.3586 28.85C50.7786 29.09 51.1086 29.42 51.3486 29.84C51.5953 30.26 51.7219 30.7367 51.7286 31.27L51.4186 31.51C51.4186 31.99 51.3053 32.4233 51.0786 32.81C50.8586 33.19 50.5553 33.4933 50.1686 33.72C49.7886 33.94 49.3553 34.05 48.8686 34.05ZM48.9486 33.35C49.3353 33.35 49.6786 33.26 49.9786 33.08C50.2853 32.9 50.5253 32.6533 50.6986 32.34C50.8786 32.02 50.9686 31.6633 50.9686 31.27C50.9686 30.87 50.8786 30.5133 50.6986 30.2C50.5253 29.8867 50.2853 29.64 49.9786 29.46C49.6786 29.2733 49.3353 29.18 48.9486 29.18C48.5686 29.18 48.2253 29.2733 47.9186 29.46C47.6119 29.64 47.3686 29.8867 47.1886 30.2C47.0086 30.5133 46.9186 30.87 46.9186 31.27C46.9186 31.6633 47.0086 32.02 47.1886 32.34C47.3686 32.6533 47.6119 32.9 47.9186 33.08C48.2253 33.26 48.5686 33.35 48.9486 33.35ZM51.3386 34C51.2253 34 51.1319 33.9667 51.0586 33.9C50.9853 33.8267 50.9486 33.7333 50.9486 33.62V31.91L51.1386 31.12L51.7286 31.27V33.62C51.7286 33.7333 51.6919 33.8267 51.6186 33.9C51.5453 33.9667 51.4519 34 51.3386 34ZM55.6662 34.05C55.1395 34.05 54.6695 33.93 54.2562 33.69C53.8495 33.4433 53.5262 33.11 53.2862 32.69C53.0528 32.27 52.9362 31.7967 52.9362 31.27C52.9362 30.7367 53.0495 30.26 53.2762 29.84C53.5028 29.42 53.8128 29.09 54.2062 28.85C54.5995 28.6033 55.0528 28.48 55.5662 28.48C55.9728 28.48 56.3462 28.56 56.6862 28.72C57.0328 28.88 57.3362 29.12 57.5962 29.44C57.6695 29.52 57.6962 29.6067 57.6762 29.7C57.6562 29.7867 57.5995 29.8633 57.5062 29.93C57.4328 29.9833 57.3495 30.0033 57.2562 29.99C57.1695 29.97 57.0928 29.92 57.0262 29.84C56.6395 29.4 56.1528 29.18 55.5662 29.18C55.1928 29.18 54.8628 29.27 54.5762 29.45C54.2962 29.63 54.0762 29.8767 53.9162 30.19C53.7628 30.5033 53.6862 30.8633 53.6862 31.27C53.6862 31.67 53.7695 32.0267 53.9362 32.34C54.1028 32.6533 54.3362 32.9 54.6362 33.08C54.9362 33.26 55.2795 33.35 55.6662 33.35C55.9262 33.35 56.1628 33.3167 56.3762 33.25C56.5962 33.1767 56.7895 33.0667 56.9562 32.92C57.0362 32.8533 57.1195 32.8167 57.2062 32.81C57.2928 32.8033 57.3728 32.83 57.4462 32.89C57.5262 32.9633 57.5695 33.0467 57.5762 33.14C57.5895 33.2333 57.5595 33.3133 57.4862 33.38C56.9995 33.8267 56.3928 34.05 55.6662 34.05ZM59.8034 32.17L59.3334 31.66L62.7534 28.57C62.8334 28.4967 62.9168 28.4633 63.0034 28.47C63.0901 28.47 63.1701 28.51 63.2434 28.59C63.3168 28.67 63.3501 28.7567 63.3434 28.85C63.3434 28.9367 63.3034 29.0133 63.2234 29.08L59.8034 32.17ZM59.5534 34C59.4401 34 59.3468 33.9667 59.2734 33.9C59.2068 33.8267 59.1734 33.7333 59.1734 33.62V26.57C59.1734 26.4567 59.2068 26.3667 59.2734 26.3C59.3468 26.2267 59.4401 26.19 59.5534 26.19C59.6668 26.19 59.7568 26.2267 59.8234 26.3C59.8968 26.3667 59.9334 26.4567 59.9334 26.57V33.62C59.9334 33.7333 59.8968 33.8267 59.8234 33.9C59.7568 33.9667 59.6668 34 59.5534 34ZM63.2534 33.95C63.1668 34.0233 63.0768 34.0533 62.9834 34.04C62.8901 34.0333 62.8101 33.9867 62.7434 33.9L60.5134 31.16L61.0534 30.68L63.3034 33.45C63.3701 33.53 63.4001 33.6167 63.3934 33.71C63.3868 33.7967 63.3401 33.8767 63.2534 33.95Z" fill="#F5F2ED"/>
<circle cx="36.5" cy="15.5" r="3.5" fill="#F5F2ED"/>
<circle cx="36.5" cy="15.5" r="1.5" fill="#9A97DA"/>
</svg>
